<svg aria-hidden="true" style="width:0;height:0;position:absolute;overflow:hidden" xmlns="http://www.w3.org/2000/svg"><defs><symbol id="deliv-icon" viewBox="0 0 32 32"><path fill="#fff" style="fill:var(--color1,#fff)" d="M32.002 16.001c0 8.837-7.164 16.001-16.001 16.001S0 24.838 0 16.001C0 7.164 7.164 0 16.001 0s16.001 7.164 16.001 16.001z"/><path fill="#7eb101" style="fill:var(--color2,#7eb101)" d="m9.489 14.423 2.356 1c.267-.533.551-1.059.855-1.577s.626-1.015.967-1.489l-1.755-.355-2.423 2.422zm3.423 1.8 2.956 2.956a17.292 17.292 0 0 0 2.442-1.352l-.064.04c.74-.489 1.34-.963 1.8-1.422 1.2-1.2 2.081-2.43 2.644-3.69s.867-2.681.911-4.267c-1.585.045-3.008.349-4.267.911s-2.489 1.445-3.689 2.645c-.46.459-.933 1.059-1.423 1.8a17.031 17.031 0 0 0-1.266 2.269l-.045.108zm5.089-2.134c-.296-.296-.445-.663-.445-1.1s.149-.803.445-1.1c.296-.296.663-.444 1.1-.444s.804.148 1.1.444c.296.297.445.663.445 1.1s-.149.804-.445 1.1c-.296.297-.663.445-1.1.445s-.804-.148-1.1-.445zm-.333 8.512 2.422-2.422-.355-1.756c-.474.341-.971.663-1.489.967s-1.045.589-1.578.856l1 2.355zm7.245-15.423c.133 2.015-.119 3.852-.756 5.511s-1.689 3.223-3.156 4.69l-.045.044-.044.045.489 2.445c.045.222.033.437-.033.644s-.181.393-.345.556l-3.8 3.822-1.889-4.4-3.778-3.778-4.4-1.889 3.823-3.8c.163-.163.348-.278.555-.345s.422-.077.645-.033l2.444.489a.181.181 0 0 1 .044-.033h.001a.187.187 0 0 0 .045-.033c1.467-1.467 3.029-2.523 4.689-3.167s3.496-.9 5.512-.767zM8.645 19.446c.518-.519 1.151-.782 1.9-.789s1.381.249 1.9.767c.518.519.773 1.152.767 1.9s-.271 1.382-.789 1.9c-.385.385-.981.704-1.789.956s-2.019.489-3.634.711c.222-1.615.455-2.829.7-3.644s.559-1.415.945-1.8zm.934.955c-.207.222-.393.571-.556 1.045s-.303 1.081-.422 1.822c.741-.119 1.348-.259 1.822-.422s.823-.349 1.045-.556c.281-.251.426-.567.433-.944l.001-.041c0-.37-.149-.705-.389-.949a1.345 1.345 0 0 0-.949-.389l-.042.001h.002a1.248 1.248 0 0 0-.943.432l-.001.002z"/></symbol><symbol id="gg_menu" viewBox="0 0 32 32"><path fill="#7eb101" style="fill:var(--color2,#7eb101)" d="M2.667 8.001c0-.737.597-1.334 1.334-1.334h24.002a1.334 1.334 0 1 1 0 2.668H4.001a1.334 1.334 0 0 1-1.334-1.334zm0 8.043a1.335 1.335 0 0 1 1.334-1.333h24.002l.039-.001a1.334 1.334 0 1 1 0 2.668l-.041-.001h.002H4.001a1.334 1.334 0 0 1-1.334-1.334zM4 22.754a1.334 1.334 0 0 0-.002 2.666H28.002l.039.001a1.334 1.334 0 1 0 0-2.668l-.041.001h.002H4z"/></symbol><symbol id="logo" viewBox="0 0 44 32"><path fill="#ffe553" style="fill:var(--color3,#ffe553)" d="M16.498 6.457c1.014-1.982 3.847-1.982 4.86 0l1.283 2.511a2.739 2.739 0 0 0 1.986 1.45l.016.002 2.78.442c2.202.35 3.079 3.05 1.502 4.626l-1.984 1.983a2.72 2.72 0 0 0-.765 2.371l-.002-.016.438 2.773c.348 2.2-1.945 3.868-3.932 2.859l-2.517-1.278c-.36-.186-.785-.296-1.236-.296s-.876.109-1.251.303l.015-.007-2.517 1.278c-1.987 1.009-4.28-.659-3.932-2.859l.438-2.773a2.72 2.72 0 0 0-.767-2.356l-1.984-1.983c-1.577-1.576-.701-4.276 1.502-4.626l2.78-.441a2.738 2.738 0 0 0 1.995-1.438l.007-.015 1.283-2.511z"/><path fill="#2c2c2c" style="fill:var(--color4,#2c2c2c)" d="m3.434 20.361-.022.005a31 31 0 0 1-.011.9c-.002.524-.003.868-.002 1.032 0 .157-.004.285-.01.384l.001.336c0 .104-.007.207-.021.308l.001-.012-.018.207c-.014.13-.042.2-.085.21-.092.022-.236-.049-.431-.212-.198-.171-.311-.319-.342-.447s-.038-1.06-.024-2.799c.022-1.74-.025-2.884-.14-3.433a.422.422 0 0 1 .016-.275l-.001.003c.035-.166.219-.321.551-.467.339-.147.845-.3 1.518-.459.68-.16 1.219-.251 1.619-.27.406-.021.625.032.655.16.02.085-.026.159-.138.223s-.211.117-.298.16l-.348.139c-.146.049-.281.096-.404.14-.126.037-.289.09-.489.16-.193.068-.372.133-.537.195-.167.054-.391.133-.673.237a5.19 5.19 0 0 1-.405.153l-.143.044c.012.02.023.05.033.093.079.332.122 1.131.129 2.392a10.96 10.96 0 0 0 1.483-.388l-.077.023c.5-.163.806-.257.92-.284.269-.063.417-.039.444.074.052.22-.212.476-.794.771a8.748 8.748 0 0 1-1.955.697zm6.937-1.951a2.02 2.02 0 0 0-.283-.66l.005.007c-.13-.201-.281-.334-.454-.398-.457.25-.788.729-.995 1.435-.201.698-.237 1.32-.108 1.865s.345.854.645.925c.486-.22.837-.669 1.05-1.348.219-.687.265-1.296.139-1.827zm-2.772.755c.117-.611.332-1.14.644-1.588.318-.457.686-.734 1.104-.833.425-.1.822-.003 1.191.291.367.287.612.689.735 1.206.121.51.121 1.064.001 1.66a3.786 3.786 0 0 1-.722 1.58l.006-.008c-.35.449-.769.731-1.258.846-.361.086-.702-.01-1.022-.286s-.54-.669-.66-1.179c-.123-.517-.129-1.08-.019-1.689zm7.586-1.892a2.02 2.02 0 0 0-.283-.66l.005.007c-.13-.201-.281-.334-.453-.398-.457.25-.789.728-.995 1.435-.201.698-.237 1.32-.108 1.865s.345.853.646.924c.486-.22.836-.668 1.049-1.347.219-.687.265-1.296.139-1.828zm-2.771.755c.117-.611.332-1.14.644-1.588.318-.457.686-.734 1.104-.833.425-.1.822-.004 1.191.291.367.287.612.689.734 1.206.121.51.121 1.063.001 1.66a3.766 3.766 0 0 1-.723 1.579l.006-.008c-.35.449-.769.731-1.257.847-.361.085-.702-.01-1.022-.286s-.54-.669-.661-1.179c-.122-.517-.129-1.08-.018-1.689zm7.792-6.988c.113-.027.276.047.489.221.219.165.35.34.394.524s.079.729.107 1.635c.026.899.031 1.836.015 2.812-.02 2.188-.111 3.301-.274 3.34-.099.023-.223-.011-.372-.103-.143-.101-.226-.197-.248-.289s-.041-.282-.057-.57c-.526.872-1.048 1.369-1.565 1.491-.311.074-.628-.001-.95-.224-.315-.225-.509-.49-.581-.794-.105-.439-.111-.987-.02-1.645.106-.711.33-1.352.653-1.929l-.015.028c.329-.601.745-.961 1.247-1.08.503-.119.925.1 1.266.654.006-1.587-.078-2.819-.249-3.699-.05-.212.002-.337.159-.374zm.067 5.492c-.091-.383-.235-.689-.431-.92-.19-.232-.377-.326-.561-.283-.305.072-.572.333-.801.784a4.555 4.555 0 0 0-.455 1.452l-.003.024c-.07.525-.063.964.021 1.318.03.127.1.22.211.276s.23.069.357.039c.276-.065.601-.351.975-.858.38-.509.613-1.057.698-1.646l.002-.135-.012-.052zm6.783-.637c.138.581-.009 1.131-.439 1.652a3.034 3.034 0 0 1-1.668 1.011c-.673.159-1.27.117-1.791-.127-.523-.25-.822-.532-.896-.843-.05-.212-.012-.334.116-.364.113-.027.377.09.79.352.156.09.353.163.591.219.244.055.487.054.728-.004a2.382 2.382 0 0 0 1.227-.693c.329-.347.459-.669.388-.966-.045-.191-.23-.406-.556-.643a7.377 7.377 0 0 0-1.006-.618l-.043-.02c-.369-.197-.716-.419-1.044-.662s-.511-.455-.554-.632a1.652 1.652 0 0 1-.025-.597l-.001.009c.023-.215.067-.379.13-.491.204-.37.566-.751 1.086-1.143.527-.394.99-.638 1.387-.731.205-.048.395-.022.568.079s.278.226.314.374c.016.071-.045.145-.183.223-.126.073-.335.184-.548.289l-.092.041a5.176 5.176 0 0 0-.741.422c-.741.503-1.077.901-1.008 1.191.037.156.555.494 1.553 1.013.415.221.773.474 1.094.767l-.004-.004c.348.3.557.598.628.896zm2.441.534c.032.135.126.183.281.147.27-.064.577-.215.925-.454.353-.247.55-.377.593-.387.127-.03.207.022.239.157.049.205-.108.492-.469.862-.354.368-.705.593-1.052.675-.34.08-.645.055-.915-.075-.272-.138-.431-.306-.478-.505a3.03 3.03 0 0 1-.052-.784c.011-.332.035-.768.072-1.307.042-.548.07-1 .082-1.354-.314.156-.528.248-.641.274s-.24-.003-.38-.09c-.135-.095-.215-.196-.24-.302-.04-.171.382-.442 1.265-.816a7.72 7.72 0 0 0-.178-1.606c-.05-.212-.005-.335.137-.369.121-.028.287.015.502.129.212.106.341.255.387.447s.065.542.058 1.052c.396-.131.714-.225.954-.281.425-.1.66-.058.703.126.025.106-.071.222-.288.348-.209.124-.665.348-1.366.67a46.453 46.453 0 0 1-.118 2.216l.01-.16c-.057.769-.068 1.231-.031 1.387zm4.748-5.562c.319-.075.652.018.998.281.345.255.548.513.611.775.06.255.034.538-.079.849.11.086.175.167.193.246.047.198.081.549.103 1.052.029.502.05.829.065.983.021.152.036.276.043.371.006.089.009.178.007.268.014.183-.029.287-.129.311-.127.03-.26-.055-.396-.254-.132-.208-.246-.487-.345-.838-.441.949-.931 1.487-1.469 1.614-.326.077-.681.015-1.065-.186-.379-.209-.604-.463-.675-.761-.1-.425-.069-.986.095-1.683.173-.744.454-1.4.829-1.99l-.015.026c.38-.606.79-.96 1.228-1.065zm.932 1.754c-.156-.659-.365-.957-.627-.895-.276.065-.551.34-.826.823a5.744 5.744 0 0 0-.611 1.508l-.009.041c-.138.556-.172.979-.103 1.27a.373.373 0 0 0 .217.261l.002.001a.606.606 0 0 0 .376.023c.333-.079.655-.39.968-.936a3.82 3.82 0 0 0 .481-1.852c-.004-.111.041-.189.135-.234l-.003-.01z"/><path fill="#bbf330" style="fill:var(--color5,#bbf330)" d="M33.162 19.977a.92.92 0 0 0-.641.596l-.002.006c-1.911 5.65-7.265 9.72-13.574 9.72h-.022a14.24 14.24 0 0 1-9.852-3.94l.006.006a.914.914 0 0 0-.853-.231l.006-.001c-.641.158-.883.935-.407 1.392a15.933 15.933 0 0 0 11.101 4.481h.024-.001c7.098 0 13.118-4.606 15.226-10.988.206-.626-.369-1.2-1.009-1.041zM4.187 14.153a.909.909 0 0 0 .667-.724c1.214-6.666 7.06-11.722 14.09-11.722a14.31 14.31 0 0 1 11.265 5.465c.22.279.58.413.926.328.585-.145.849-.825.48-1.301A16.014 16.014 0 0 0 18.945 0C11.042 0 4.474 5.712 3.158 13.227c-.104.593.446 1.07 1.03.926z"/><path fill="#bbf330" style="fill:var(--color5,#bbf330);stroke:var(--color5,#bbf330)" stroke="#bbf330" stroke-linejoin="round" stroke-width=".628" d="M43.047 5.333c-3.788 7.242-5.451 2.465-10.783 5.271.534-8.407 6.181-3.292 10.783-5.271z"/></symbol><symbol id="ordrer-icon" viewBox="0 0 32 32"><path fill="#fff" style="fill:var(--color1,#fff)" d="M32.002 16.001c0 8.837-7.164 16.001-16.001 16.001S0 24.838 0 16.001C0 7.164 7.164 0 16.001 0s16.001 7.164 16.001 16.001z"/><path fill="#7eb101" style="fill:var(--color2,#7eb101)" d="M15.668 6.222c1.349 0 2.5.471 3.456 1.411s1.433 2.085 1.433 3.434a4.9 4.9 0 0 1-.5 2.178 4.951 4.951 0 0 1-1.4 1.725l-.011.008h-.755v-1.111c.418-.33.752-.747.98-1.224l.009-.021c.218-.451.345-.981.345-1.54v-.016.001c0-.978-.349-1.807-1.045-2.489s-1.533-1.023-2.511-1.023c-.977 0-1.815.341-2.511 1.023s-1.045 1.511-1.045 2.489c0 .548.115 1.067.345 1.555.236.498.571.915.982 1.239l.007.005v1.6a4.875 4.875 0 0 1-1.943-1.801l-.012-.021a4.841 4.841 0 0 1-.711-2.542v-.039.002c0-1.348.478-2.493 1.433-3.434S14.321 6.22 15.67 6.22zm-.844 18.668c-.252 0-.489-.048-.711-.144a1.86 1.86 0 0 1-.578-.389l-4.578-4.578 1.244-1.289c.207-.207.441-.367.7-.477a1.191 1.191 0 0 1 .82-.054l-.009-.002 1.733.4v-7.244c0-.623.215-1.149.645-1.578s.955-.645 1.577-.645c.623 0 1.149.215 1.578.645s.645.955.645 1.578v3.822h.577c.074 0 .141.015.2.045s.127.059.2.089l3.29 1.6c.355.163.618.426.789.789s.219.737.145 1.123l-.8 4.844c-.071.431-.298.8-.619 1.053l-.004.003a1.783 1.783 0 0 1-1.143.411h-5.701zm-.178-1.333h6.245l.955-5.534-4.067-2.022h-1.222v-4.889c0-.267-.082-.482-.245-.645s-.378-.245-.645-.245-.481.082-.644.245c-.163.163-.245.378-.245.645v8.867l-3.422-.733-.511.511 3.8 3.8zm6.245 0z"/></symbol><symbol id="stars" viewBox="0 0 200 32"><path fill="#ffe550" style="fill:var(--color6,#ffe550)" d="M15.64 1.044c.592-1.384 2.61-1.384 3.204 0l3.496 8.162c.25.582.814.98 1.462 1.032l9.08.706c1.54.12 2.162 1.982.99 2.958l-6.918 5.752a1.655 1.655 0 0 0-.557 1.682l-.002-.011 2.114 8.6c.36 1.456-1.274 2.608-2.592 1.828l-7.772-4.61a1.778 1.778 0 0 0-1.816.004l.008-.005-7.774 4.61c-1.318.78-2.95-.372-2.592-1.828l2.114-8.6a1.653 1.653 0 0 0-.558-1.668l-.003-.002-6.916-5.75c-1.172-.978-.548-2.84.992-2.96l9.08-.704a1.738 1.738 0 0 0 1.46-1.021l.004-.011 3.496-8.164zm41.38 0c.59-1.384 2.61-1.384 3.202 0l3.5 8.164c.248.582.812.98 1.46 1.032l9.08.706c1.54.12 2.162 1.982.99 2.958l-6.916 5.752a1.655 1.655 0 0 0-.557 1.682l-.002-.011 2.114 8.6c.358 1.456-1.276 2.608-2.592 1.828l-7.774-4.61a1.778 1.778 0 0 0-1.816.004l.008-.005-7.774 4.61c-1.316.78-2.95-.372-2.592-1.828l2.114-8.6a1.653 1.653 0 0 0-.558-1.668l-.003-.002-6.916-5.752c-1.172-.976-.548-2.84.99-2.96l9.08-.704a1.735 1.735 0 0 0 1.458-1.021l.004-.011 3.5-8.164zm41.38 0c.59-1.384 2.61-1.384 3.202 0l3.498 8.162c.25.582.816.98 1.464 1.032l9.08.706c1.536.12 2.16 1.982.988 2.958l-6.916 5.752a1.655 1.655 0 0 0-.557 1.682l-.002-.011 2.114 8.6c.358 1.456-1.276 2.608-2.592 1.828l-7.774-4.61a1.778 1.778 0 0 0-1.816.004l.008-.005-7.774 4.61c-1.316.78-2.95-.372-2.592-1.828l2.114-8.6a1.653 1.653 0 0 0-.558-1.668l-.003-.002-6.916-5.752c-1.172-.976-.548-2.84.99-2.96l9.08-.704a1.735 1.735 0 0 0 1.458-1.021l.004-.011 3.5-8.162zm41.378 0c.592-1.384 2.61-1.384 3.204 0l3.498 8.162c.25.582.814.98 1.462 1.032l9.08.706c1.538.12 2.16 1.982.99 2.958l-6.918 5.752a1.655 1.655 0 0 0-.557 1.682l-.002-.011 2.114 8.6c.36 1.456-1.274 2.608-2.592 1.828l-7.772-4.61c-.259-.155-.571-.247-.905-.247s-.646.092-.913.252l.008-.005-7.772 4.61c-1.318.78-2.95-.372-2.592-1.828l2.112-8.6a1.65 1.65 0 0 0-.555-1.667l-.003-.002-6.918-5.752c-1.172-.976-.548-2.84.99-2.96l9.08-.704a1.738 1.738 0 0 0 1.46-1.021l.004-.011 3.498-8.162zm41.38 0c.592-1.384 2.61-1.384 3.204 0l3.494 8.162c.25.582.816.98 1.464 1.032l9.08.706c1.538.12 2.162 1.982.99 2.958l-6.918 5.752a1.655 1.655 0 0 0-.557 1.682l-.002-.011 2.114 8.6c.36 1.456-1.274 2.608-2.592 1.828l-7.772-4.61c-.259-.155-.571-.247-.905-.247s-.646.092-.913.252l.008-.005-7.772 4.61c-1.318.78-2.95-.372-2.592-1.828l2.112-8.6a1.653 1.653 0 0 0-.558-1.668l-.003-.002-6.916-5.752c-1.172-.976-.548-2.84.99-2.96l9.08-.704a1.735 1.735 0 0 0 1.458-1.021l.004-.011 3.504-8.162z"/></symbol></defs></svg>