
<svg aria-hidden="true" style="position: absolute; width: 0; height: 0; overflow: hidden;" version="1.1" xmlns="http://www.w3.org/2000/svg" xmlns:xlink="http://www.w3.org/1999/xlink">
<defs>
<symbol id="deliv-icon" viewBox="0 0 32 32">
<path fill="#fff" style="fill: var(--color1, #fff)" d="M32.002 16.001c0 8.837-7.164 16.001-16.001 16.001s-16.001-7.164-16.001-16.001c0-8.837 7.164-16.001 16.001-16.001s16.001 7.164 16.001 16.001z"></path>
<path fill="#7eb101" style="fill: var(--color2, #7eb101)" d="M9.489 14.423l2.356 1c0.267-0.533 0.551-1.059 0.855-1.577s0.626-1.015 0.967-1.489l-1.755-0.355-2.423 2.422zM12.912 16.223l2.956 2.956c0.922-0.422 1.702-0.859 2.442-1.352l-0.064 0.040c0.74-0.489 1.34-0.963 1.8-1.422 1.2-1.2 2.081-2.43 2.644-3.69s0.867-2.681 0.911-4.267c-1.585 0.045-3.008 0.349-4.267 0.911s-2.489 1.445-3.689 2.645c-0.46 0.459-0.933 1.059-1.423 1.8-0.452 0.676-0.889 1.456-1.266 2.269l-0.045 0.108zM18.001 14.089c-0.296-0.296-0.445-0.663-0.445-1.1s0.149-0.803 0.445-1.1c0.296-0.296 0.663-0.444 1.1-0.444s0.804 0.148 1.1 0.444c0.296 0.297 0.445 0.663 0.445 1.1s-0.149 0.804-0.445 1.1c-0.296 0.297-0.663 0.445-1.1 0.445s-0.804-0.148-1.1-0.445zM17.668 22.601l2.422-2.422-0.355-1.756c-0.474 0.341-0.971 0.663-1.489 0.967s-1.045 0.589-1.578 0.856l1 2.355zM24.913 7.178c0.133 2.015-0.119 3.852-0.756 5.511s-1.689 3.223-3.156 4.69l-0.045 0.044-0.044 0.045 0.489 2.445c0.045 0.222 0.033 0.437-0.033 0.644s-0.181 0.393-0.345 0.556l-3.8 3.822-1.889-4.4-3.778-3.778-4.4-1.889 3.823-3.8c0.163-0.163 0.348-0.278 0.555-0.345s0.422-0.077 0.645-0.033l2.444 0.489c0.013-0.013 0.027-0.024 0.044-0.033l0.001-0c0.017-0.009 0.032-0.020 0.045-0.033l0-0c1.467-1.467 3.029-2.523 4.689-3.167s3.496-0.9 5.512-0.767zM8.645 19.446c0.518-0.519 1.151-0.782 1.9-0.789s1.381 0.249 1.9 0.767c0.518 0.519 0.773 1.152 0.767 1.9s-0.271 1.382-0.789 1.9c-0.385 0.385-0.981 0.704-1.789 0.956s-2.019 0.489-3.634 0.711c0.222-1.615 0.455-2.829 0.7-3.644s0.559-1.415 0.945-1.8zM9.579 20.401c-0.207 0.222-0.393 0.571-0.556 1.045s-0.303 1.081-0.422 1.822c0.741-0.119 1.348-0.259 1.822-0.422s0.823-0.349 1.045-0.556c0.281-0.251 0.426-0.567 0.433-0.944 0-0.012 0.001-0.026 0.001-0.041 0-0.37-0.149-0.705-0.389-0.949l0 0c-0.244-0.241-0.579-0.389-0.949-0.389-0.014 0-0.028 0-0.042 0.001l0.002-0c-0.377 0.001-0.714 0.168-0.943 0.432l-0.001 0.002z"></path>
</symbol>
<symbol id="gg_menu" viewBox="0 0 32 32">
<path fill="#7eb101" style="fill: var(--color2, #7eb101)" d="M2.667 8.001c0-0.737 0.597-1.334 1.334-1.334v0h24.002c0.737 0 1.334 0.597 1.334 1.334s-0.597 1.334-1.334 1.334h-24.002c-0.737 0-1.334-0.597-1.334-1.334v0zM2.667 16.044c0.001-0.736 0.598-1.333 1.334-1.333 0 0 0 0 0 0h24.002c0.012-0 0.025-0.001 0.039-0.001 0.737 0 1.334 0.597 1.334 1.334s-0.597 1.334-1.334 1.334c-0.014 0-0.027-0-0.041-0.001l0.002 0h-24.002c-0.737 0-1.334-0.597-1.334-1.334v0zM4 22.754c-0.72 0.022-1.295 0.61-1.295 1.333s0.575 1.312 1.293 1.333l0.002 0h24.002c0.012 0 0.025 0.001 0.039 0.001 0.737 0 1.334-0.597 1.334-1.334s-0.597-1.334-1.334-1.334c-0.014 0-0.027 0-0.041 0.001l0.002-0h-24.002z"></path>
</symbol>
<symbol id="logo" viewBox="0 0 44 32">
<path fill="#ffe553" style="fill: var(--color3, #ffe553)" d="M16.498 6.457c1.014-1.982 3.847-1.982 4.86 0l1.283 2.511c0.397 0.764 1.124 1.309 1.986 1.45l0.016 0.002 2.78 0.442c2.202 0.35 3.079 3.050 1.502 4.626l-1.984 1.983c-0.494 0.494-0.8 1.176-0.8 1.93 0 0.15 0.012 0.298 0.035 0.441l-0.002-0.016 0.438 2.773c0.348 2.2-1.945 3.868-3.932 2.859l-2.517-1.278c-0.36-0.186-0.785-0.296-1.236-0.296s-0.876 0.109-1.251 0.303l0.015-0.007-2.517 1.278c-1.987 1.009-4.28-0.659-3.932-2.859l0.438-2.773c0.021-0.128 0.033-0.276 0.033-0.426 0-0.754-0.306-1.436-0.8-1.93l-1.984-1.983c-1.577-1.576-0.701-4.276 1.502-4.626l2.78-0.441c0.879-0.143 1.605-0.689 1.995-1.438l0.007-0.015 1.283-2.511z"></path>
<path fill="#2c2c2c" style="fill: var(--color4, #2c2c2c)" d="M3.434 20.361l-0.022 0.005c0.003 0.074-0.001 0.374-0.011 0.9-0.002 0.524-0.003 0.868-0.002 1.032 0 0.157-0.004 0.285-0.010 0.384l0.001 0.336c-0 0.104-0.007 0.207-0.021 0.308l0.001-0.012-0.018 0.207c-0.014 0.13-0.042 0.2-0.085 0.21-0.092 0.022-0.236-0.049-0.431-0.212-0.198-0.171-0.311-0.319-0.342-0.447s-0.038-1.060-0.024-2.799c0.022-1.74-0.025-2.884-0.14-3.433-0.010-0.035-0.016-0.074-0.016-0.116 0-0.056 0.011-0.11 0.032-0.159l-0.001 0.003c0.035-0.166 0.219-0.321 0.551-0.467 0.339-0.147 0.845-0.3 1.518-0.459 0.68-0.16 1.219-0.251 1.619-0.27 0.406-0.021 0.625 0.032 0.655 0.16 0.020 0.085-0.026 0.159-0.138 0.223s-0.211 0.117-0.298 0.16c-0.089 0.036-0.205 0.082-0.348 0.139-0.146 0.049-0.281 0.096-0.404 0.14-0.126 0.037-0.289 0.090-0.489 0.16-0.193 0.068-0.372 0.133-0.537 0.195-0.167 0.054-0.391 0.133-0.673 0.237-0.040 0.022-0.222 0.089-0.405 0.153l-0.143 0.044c0.012 0.020 0.023 0.050 0.033 0.093 0.079 0.332 0.122 1.131 0.129 2.392 0.553-0.106 1.025-0.233 1.483-0.388l-0.077 0.023c0.5-0.163 0.806-0.257 0.92-0.284 0.269-0.063 0.417-0.039 0.444 0.074 0.052 0.22-0.212 0.476-0.794 0.771-0.574 0.292-1.225 0.524-1.955 0.697zM10.371 18.41c-0.058-0.247-0.154-0.465-0.283-0.66l0.005 0.007c-0.13-0.201-0.281-0.334-0.454-0.398-0.457 0.25-0.788 0.729-0.995 1.435-0.201 0.698-0.237 1.32-0.108 1.865s0.345 0.854 0.645 0.925c0.486-0.22 0.837-0.669 1.050-1.348 0.219-0.687 0.265-1.296 0.139-1.827zM7.599 19.165c0.117-0.611 0.332-1.14 0.644-1.588 0.318-0.457 0.686-0.734 1.104-0.833 0.425-0.1 0.822-0.003 1.191 0.291 0.367 0.287 0.612 0.689 0.735 1.206 0.121 0.51 0.121 1.064 0.001 1.66-0.123 0.602-0.373 1.131-0.722 1.58l0.006-0.008c-0.35 0.449-0.769 0.731-1.258 0.846-0.361 0.086-0.702-0.010-1.022-0.286s-0.54-0.669-0.66-1.179c-0.123-0.517-0.129-1.080-0.019-1.689zM15.185 17.273c-0.058-0.247-0.154-0.465-0.283-0.66l0.005 0.007c-0.13-0.201-0.281-0.334-0.453-0.398-0.457 0.25-0.789 0.728-0.995 1.435-0.201 0.698-0.237 1.32-0.108 1.865s0.345 0.853 0.646 0.924c0.486-0.22 0.836-0.668 1.049-1.347 0.219-0.687 0.265-1.296 0.139-1.828zM12.414 18.028c0.117-0.611 0.332-1.14 0.644-1.588 0.318-0.457 0.686-0.734 1.104-0.833 0.425-0.1 0.822-0.004 1.191 0.291 0.367 0.287 0.612 0.689 0.734 1.206 0.121 0.51 0.121 1.063 0.001 1.66-0.123 0.602-0.373 1.131-0.723 1.579l0.006-0.008c-0.35 0.449-0.769 0.731-1.257 0.847-0.361 0.085-0.702-0.010-1.022-0.286s-0.54-0.669-0.661-1.179c-0.122-0.517-0.129-1.080-0.018-1.689zM20.206 11.040c0.113-0.027 0.276 0.047 0.489 0.221 0.219 0.165 0.35 0.34 0.394 0.524s0.079 0.729 0.107 1.635c0.026 0.899 0.031 1.836 0.015 2.812-0.020 2.188-0.111 3.301-0.274 3.34-0.099 0.023-0.223-0.011-0.372-0.103-0.143-0.101-0.226-0.197-0.248-0.289s-0.041-0.282-0.057-0.57c-0.526 0.872-1.048 1.369-1.565 1.491-0.311 0.074-0.628-0.001-0.95-0.224-0.315-0.225-0.509-0.49-0.581-0.794-0.105-0.439-0.111-0.987-0.020-1.645 0.106-0.711 0.33-1.352 0.653-1.929l-0.015 0.028c0.329-0.601 0.745-0.961 1.247-1.080 0.503-0.119 0.925 0.1 1.266 0.654 0.006-1.587-0.078-2.819-0.249-3.699-0.050-0.212 0.002-0.337 0.159-0.374zM20.273 16.532c-0.091-0.383-0.235-0.689-0.431-0.92-0.19-0.232-0.377-0.326-0.561-0.283-0.305 0.072-0.572 0.333-0.801 0.784-0.221 0.428-0.382 0.926-0.455 1.452l-0.003 0.024c-0.070 0.525-0.063 0.964 0.021 1.318 0.030 0.127 0.1 0.22 0.211 0.276s0.23 0.069 0.357 0.039c0.276-0.065 0.601-0.351 0.975-0.858 0.38-0.509 0.613-1.057 0.698-1.646l0.002-0.135-0.012-0.052zM27.056 15.895c0.138 0.581-0.009 1.131-0.439 1.652-0.431 0.513-0.988 0.849-1.668 1.011-0.673 0.159-1.27 0.117-1.791-0.127-0.523-0.25-0.822-0.532-0.896-0.843-0.050-0.212-0.012-0.334 0.116-0.364 0.113-0.027 0.377 0.090 0.79 0.352 0.156 0.090 0.353 0.163 0.591 0.219 0.244 0.055 0.487 0.054 0.728-0.004 0.496-0.117 0.905-0.348 1.227-0.693 0.329-0.347 0.459-0.669 0.388-0.966-0.045-0.191-0.23-0.406-0.556-0.643-0.303-0.222-0.646-0.435-1.006-0.618l-0.043-0.020c-0.369-0.197-0.716-0.419-1.044-0.662s-0.511-0.455-0.554-0.632c-0.026-0.111-0.040-0.239-0.040-0.37 0-0.077 0.005-0.153 0.015-0.227l-0.001 0.009c0.023-0.215 0.067-0.379 0.13-0.491 0.204-0.37 0.566-0.751 1.086-1.143 0.527-0.394 0.99-0.638 1.387-0.731 0.205-0.048 0.395-0.022 0.568 0.079s0.278 0.226 0.314 0.374c0.016 0.071-0.045 0.145-0.183 0.223-0.126 0.073-0.335 0.184-0.548 0.289l-0.092 0.041c-0.282 0.134-0.529 0.274-0.741 0.422-0.741 0.503-1.077 0.901-1.008 1.191 0.037 0.156 0.555 0.494 1.553 1.013 0.415 0.221 0.773 0.474 1.094 0.767l-0.004-0.004c0.348 0.3 0.557 0.598 0.628 0.896zM29.497 16.429c0.032 0.135 0.126 0.183 0.281 0.147 0.27-0.064 0.577-0.215 0.925-0.454 0.353-0.247 0.55-0.377 0.593-0.387 0.127-0.030 0.207 0.022 0.239 0.157 0.049 0.205-0.108 0.492-0.469 0.862-0.354 0.368-0.705 0.593-1.052 0.675-0.34 0.080-0.645 0.055-0.915-0.075-0.272-0.138-0.431-0.306-0.478-0.505-0.047-0.198-0.064-0.459-0.052-0.784 0.011-0.332 0.035-0.768 0.072-1.307 0.042-0.548 0.070-1 0.082-1.354-0.314 0.156-0.528 0.248-0.641 0.274s-0.24-0.003-0.38-0.090c-0.135-0.095-0.215-0.196-0.24-0.302-0.040-0.171 0.382-0.442 1.265-0.816-0.012-0.617-0.071-1.153-0.178-1.606-0.050-0.212-0.005-0.335 0.137-0.369 0.121-0.028 0.287 0.015 0.502 0.129 0.212 0.106 0.341 0.255 0.387 0.447s0.065 0.542 0.058 1.052c0.396-0.131 0.714-0.225 0.954-0.281 0.425-0.1 0.66-0.058 0.703 0.126 0.025 0.106-0.071 0.222-0.288 0.348-0.209 0.124-0.665 0.348-1.366 0.67-0.024 0.792-0.063 1.506-0.118 2.216l0.010-0.16c-0.057 0.769-0.068 1.231-0.031 1.387zM34.245 10.867c0.319-0.075 0.652 0.018 0.998 0.281 0.345 0.255 0.548 0.513 0.611 0.775 0.060 0.255 0.034 0.538-0.079 0.849 0.11 0.086 0.175 0.167 0.193 0.246 0.047 0.198 0.081 0.549 0.103 1.052 0.029 0.502 0.050 0.829 0.065 0.983 0.021 0.152 0.036 0.276 0.043 0.371 0.006 0.089 0.009 0.178 0.007 0.268 0.014 0.183-0.029 0.287-0.129 0.311-0.127 0.030-0.26-0.055-0.396-0.254-0.132-0.208-0.246-0.487-0.345-0.838-0.441 0.949-0.931 1.487-1.469 1.614-0.326 0.077-0.681 0.015-1.065-0.186-0.379-0.209-0.604-0.463-0.675-0.761-0.1-0.425-0.069-0.986 0.095-1.683 0.173-0.744 0.454-1.4 0.829-1.99l-0.015 0.026c0.38-0.606 0.79-0.96 1.228-1.065zM35.177 12.621c-0.156-0.659-0.365-0.957-0.627-0.895-0.276 0.065-0.551 0.34-0.826 0.823-0.262 0.446-0.475 0.962-0.611 1.508l-0.009 0.041c-0.138 0.556-0.172 0.979-0.103 1.27 0.027 0.119 0.109 0.215 0.217 0.261l0.002 0.001c0.116 0.047 0.241 0.055 0.376 0.023 0.333-0.079 0.655-0.39 0.968-0.936 0.311-0.551 0.471-1.169 0.481-1.852-0.004-0.111 0.041-0.189 0.135-0.234l-0.003-0.010z"></path>
<path fill="#bbf330" style="fill: var(--color5, #bbf330)" d="M33.162 19.977c-0.305 0.080-0.544 0.306-0.641 0.596l-0.002 0.006c-1.911 5.65-7.265 9.72-13.574 9.72-0.007 0-0.015 0-0.022 0-3.819 0-7.289-1.499-9.852-3.94l0.006 0.006c-0.165-0.159-0.389-0.257-0.636-0.257-0.075 0-0.148 0.009-0.217 0.026l0.006-0.001c-0.641 0.158-0.883 0.935-0.407 1.392 2.872 2.773 6.787 4.481 11.101 4.481 0.008 0 0.016 0 0.024-0h-0.001c7.098 0 13.118-4.606 15.226-10.988 0.206-0.626-0.369-1.2-1.009-1.041zM4.187 14.153c0.346-0.086 0.603-0.374 0.667-0.724 1.214-6.666 7.060-11.722 14.090-11.722 4.572 0 8.643 2.138 11.265 5.465 0.22 0.279 0.58 0.413 0.926 0.328 0.585-0.145 0.849-0.825 0.48-1.301-2.933-3.771-7.517-6.199-12.67-6.199-7.903 0-14.471 5.712-15.787 13.227-0.104 0.593 0.446 1.070 1.030 0.926z"></path>
<path fill="#bbf330" style="fill: var(--color5, #bbf330); stroke: var(--color5, #bbf330)" stroke="#bbf330" stroke-linejoin="round" stroke-linecap="butt" stroke-miterlimit="4" stroke-width="0.6277" d="M43.047 5.333c-3.788 7.242-5.451 2.465-10.783 5.271 0.534-8.407 6.181-3.292 10.783-5.271z"></path>
</symbol>
<symbol id="ordrer-icon" viewBox="0 0 32 32">
<path fill="#fff" style="fill: var(--color1, #fff)" d="M32.002 16.001c0 8.837-7.164 16.001-16.001 16.001s-16.001-7.164-16.001-16.001c0-8.837 7.164-16.001 16.001-16.001s16.001 7.164 16.001 16.001z"></path>
<path fill="#7eb101" style="fill: var(--color2, #7eb101)" d="M15.668 6.222c1.349 0 2.5 0.471 3.456 1.411s1.433 2.085 1.433 3.434c0 0.77-0.167 1.496-0.5 2.178-0.343 0.694-0.82 1.273-1.4 1.725l-0.011 0.008h-0.755v-1.111c0.418-0.33 0.752-0.747 0.98-1.224l0.009-0.021c0.218-0.451 0.345-0.981 0.345-1.54 0-0.005 0-0.011-0-0.016v0.001c0-0.978-0.349-1.807-1.045-2.489s-1.533-1.023-2.511-1.023c-0.977 0-1.815 0.341-2.511 1.023s-1.045 1.511-1.045 2.489c0 0.548 0.115 1.067 0.345 1.555 0.236 0.498 0.571 0.915 0.982 1.239l0.007 0.005v1.6c-0.818-0.422-1.482-1.043-1.943-1.801l-0.012-0.021c-0.447-0.724-0.711-1.602-0.711-2.542 0-0.013 0-0.026 0-0.039v0.002c0-1.348 0.478-2.493 1.433-3.434s2.107-1.411 3.456-1.411zM14.824 24.89c-0.252 0-0.489-0.048-0.711-0.144-0.224-0.097-0.416-0.228-0.578-0.389l-4.578-4.578 1.244-1.289c0.207-0.207 0.441-0.367 0.7-0.477 0.143-0.064 0.309-0.101 0.485-0.101 0.116 0 0.229 0.016 0.335 0.047l-0.009-0.002 1.733 0.4v-7.244c0-0.623 0.215-1.149 0.645-1.578s0.955-0.645 1.577-0.645c0.623 0 1.149 0.215 1.578 0.645s0.645 0.955 0.645 1.578v3.822h0.577c0.074 0 0.141 0.015 0.2 0.045s0.127 0.059 0.2 0.089l3.29 1.6c0.355 0.163 0.618 0.426 0.789 0.789s0.219 0.737 0.145 1.123l-0.8 4.844c-0.071 0.431-0.298 0.8-0.619 1.053l-0.004 0.003c-0.308 0.256-0.707 0.411-1.143 0.411-0.004 0-0.009-0-0.013-0h-5.688zM14.646 23.557h6.245l0.955-5.534-4.067-2.022h-1.222v-4.889c0-0.267-0.082-0.482-0.245-0.645s-0.378-0.245-0.645-0.245-0.481 0.082-0.644 0.245c-0.163 0.163-0.245 0.378-0.245 0.645v8.867l-3.422-0.733-0.511 0.511 3.8 3.8zM20.891 23.557v0z"></path>
</symbol>
<symbol id="stars" viewBox="0 0 200 32">
<path fill="#ffe550" style="fill: var(--color6, #ffe550)" d="M15.64 1.044c0.592-1.384 2.61-1.384 3.204 0l3.496 8.162c0.25 0.582 0.814 0.98 1.462 1.032l9.080 0.706c1.54 0.12 2.162 1.982 0.99 2.958l-6.918 5.752c-0.371 0.306-0.606 0.766-0.606 1.281 0 0.138 0.017 0.272 0.049 0.401l-0.002-0.011 2.114 8.6c0.36 1.456-1.274 2.608-2.592 1.828l-7.772-4.61c-0.259-0.155-0.571-0.247-0.904-0.247s-0.645 0.092-0.912 0.251l0.008-0.005-7.774 4.61c-1.318 0.78-2.95-0.372-2.592-1.828l2.114-8.6c0.029-0.117 0.046-0.251 0.046-0.389 0-0.515-0.235-0.975-0.604-1.279l-0.003-0.002-6.916-5.75c-1.172-0.978-0.548-2.84 0.992-2.96l9.080-0.704c0.655-0.048 1.206-0.454 1.46-1.021l0.004-0.011 3.496-8.164zM57.020 1.044c0.59-1.384 2.61-1.384 3.202 0l3.5 8.164c0.248 0.582 0.812 0.98 1.46 1.032l9.080 0.706c1.54 0.12 2.162 1.982 0.99 2.958l-6.916 5.752c-0.371 0.306-0.606 0.766-0.606 1.281 0 0.138 0.017 0.272 0.049 0.401l-0.002-0.011 2.114 8.6c0.358 1.456-1.276 2.608-2.592 1.828l-7.774-4.61c-0.259-0.155-0.571-0.247-0.904-0.247s-0.645 0.092-0.912 0.251l0.008-0.005-7.774 4.61c-1.316 0.78-2.95-0.372-2.592-1.828l2.114-8.6c0.029-0.117 0.046-0.251 0.046-0.389 0-0.515-0.235-0.975-0.604-1.279l-0.003-0.002-6.916-5.752c-1.172-0.976-0.548-2.84 0.99-2.96l9.080-0.704c0.655-0.048 1.204-0.454 1.458-1.021l0.004-0.011 3.5-8.164zM98.4 1.044c0.59-1.384 2.61-1.384 3.202 0l3.498 8.162c0.25 0.582 0.816 0.98 1.464 1.032l9.080 0.706c1.536 0.12 2.16 1.982 0.988 2.958l-6.916 5.752c-0.371 0.306-0.606 0.766-0.606 1.281 0 0.138 0.017 0.272 0.049 0.401l-0.002-0.011 2.114 8.6c0.358 1.456-1.276 2.608-2.592 1.828l-7.774-4.61c-0.259-0.155-0.571-0.247-0.904-0.247s-0.645 0.092-0.912 0.251l0.008-0.005-7.774 4.61c-1.316 0.78-2.95-0.372-2.592-1.828l2.114-8.6c0.029-0.117 0.046-0.251 0.046-0.389 0-0.515-0.235-0.975-0.604-1.279l-0.003-0.002-6.916-5.752c-1.172-0.976-0.548-2.84 0.99-2.96l9.080-0.704c0.655-0.048 1.204-0.454 1.458-1.021l0.004-0.011 3.5-8.162zM139.778 1.044c0.592-1.384 2.61-1.384 3.204 0l3.498 8.162c0.25 0.582 0.814 0.98 1.462 1.032l9.080 0.706c1.538 0.12 2.16 1.982 0.99 2.958l-6.918 5.752c-0.371 0.306-0.606 0.766-0.606 1.281 0 0.138 0.017 0.272 0.049 0.401l-0.002-0.011 2.114 8.6c0.36 1.456-1.274 2.608-2.592 1.828l-7.772-4.61c-0.259-0.155-0.571-0.247-0.905-0.247s-0.646 0.092-0.913 0.252l0.008-0.005-7.772 4.61c-1.318 0.78-2.95-0.372-2.592-1.828l2.112-8.6c0.030-0.117 0.047-0.252 0.047-0.39 0-0.514-0.234-0.974-0.602-1.277l-0.003-0.002-6.918-5.752c-1.172-0.976-0.548-2.84 0.99-2.96l9.080-0.704c0.655-0.048 1.206-0.454 1.46-1.021l0.004-0.011 3.498-8.162zM181.158 1.044c0.592-1.384 2.61-1.384 3.204 0l3.494 8.162c0.25 0.582 0.816 0.98 1.464 1.032l9.080 0.706c1.538 0.12 2.162 1.982 0.99 2.958l-6.918 5.752c-0.371 0.306-0.606 0.766-0.606 1.281 0 0.138 0.017 0.272 0.049 0.401l-0.002-0.011 2.114 8.6c0.36 1.456-1.274 2.608-2.592 1.828l-7.772-4.61c-0.259-0.155-0.571-0.247-0.905-0.247s-0.646 0.092-0.913 0.252l0.008-0.005-7.772 4.61c-1.318 0.78-2.95-0.372-2.592-1.828l2.112-8.6c0.029-0.117 0.046-0.251 0.046-0.389 0-0.515-0.235-0.975-0.604-1.279l-0.003-0.002-6.916-5.752c-1.172-0.976-0.548-2.84 0.99-2.96l9.080-0.704c0.655-0.048 1.204-0.454 1.458-1.021l0.004-0.011 3.504-8.162z"></path>
</symbol>
<symbol id="arrow-left" viewBox="0 0 18 32">
<path d="M0.48 16.965l14.861 14.16c0.248 0.236 0.577 0.368 0.92 0.368s0.672-0.132 0.92-0.368l0.016-0.016c0.121-0.115 0.217-0.252 0.282-0.405s0.1-0.317 0.1-0.484-0.034-0.331-0.1-0.484c-0.066-0.153-0.162-0.291-0.282-0.405l-13.995-13.333 13.995-13.328c0.121-0.115 0.217-0.253 0.282-0.405s0.1-0.318 0.1-0.484-0.034-0.331-0.1-0.484c-0.066-0.153-0.162-0.291-0.282-0.405l-0.016-0.016c-0.248-0.236-0.578-0.368-0.92-0.368s-0.672 0.132-0.92 0.368l-14.861 14.16c-0.131 0.125-0.235 0.274-0.306 0.44s-0.108 0.345-0.108 0.525c0 0.181 0.037 0.359 0.108 0.525s0.175 0.316 0.306 0.44z"></path>
</symbol>
<symbol id="arrow-right" viewBox="0 0 18 32">
<path d="M17.653 15.035l-14.861-14.16c-0.248-0.236-0.577-0.368-0.92-0.368s-0.672 0.132-0.92 0.368l-0.016 0.016c-0.121 0.115-0.217 0.253-0.282 0.405s-0.099 0.318-0.099 0.484c0 0.166 0.034 0.331 0.099 0.484s0.162 0.291 0.282 0.405l13.995 13.333-13.995 13.328c-0.121 0.115-0.217 0.252-0.282 0.405s-0.099 0.317-0.099 0.484 0.034 0.331 0.099 0.484c0.066 0.153 0.162 0.291 0.282 0.405l0.016 0.016c0.248 0.236 0.577 0.368 0.92 0.368s0.672-0.132 0.92-0.368l14.861-14.16c0.131-0.125 0.235-0.274 0.306-0.44s0.108-0.345 0.108-0.525c0-0.181-0.037-0.359-0.108-0.525s-0.175-0.316-0.306-0.44z"></path>
</symbol>
</defs>
</svg>
