<svg width="72" height="52" fill="none" xmlns="http://www.w3.org/2000/svg"><path d="M26.805 10.49c1.647-3.221 6.25-3.221 7.897 0l2.085 4.079a4.434 4.434 0 0 0 3.253 2.36l4.517.718c3.578.568 5.002 4.955 2.44 7.516l-3.223 3.222a4.435 4.435 0 0 0-1.245 3.828l.711 4.506c.565 3.575-3.16 6.285-6.388 4.645l-4.09-2.077a4.435 4.435 0 0 0-4.016 0l-4.09 2.077c-3.228 1.64-6.954-1.07-6.389-4.645l.712-4.506a4.434 4.434 0 0 0-1.245-3.828l-3.223-3.222c-2.563-2.561-1.139-6.948 2.44-7.516l4.517-.717a4.435 4.435 0 0 0 3.253-2.361l2.084-4.079Z" fill="#FFE553"/><path d="m5.58 33.08-.035.008c.005.12-.001.608-.018 1.463-.004.851-.005 1.41-.003 1.677 0 .255-.006.463-.016.624l.002.546a3.678 3.678 0 0 1-.032.481l-.03.336c-.023.211-.069.325-.138.342-.15.035-.383-.08-.701-.345-.321-.277-.506-.518-.555-.726-.05-.207-.062-1.722-.039-4.547.035-2.827-.041-4.686-.228-5.578a.675.675 0 0 1 .023-.442c.057-.27.356-.522.895-.759.551-.239 1.373-.488 2.467-.746 1.105-.26 1.981-.407 2.63-.439.66-.034 1.015.052 1.064.26.033.138-.042.259-.224.362-.182.104-.343.19-.485.26-.144.059-.333.134-.566.226-.237.08-.456.156-.657.228-.205.06-.47.147-.795.26-.314.11-.605.216-.873.316-.271.088-.636.216-1.094.385a33.23 33.23 0 0 1-.89.32c.02.032.037.082.054.151.128.54.198 1.837.21 3.887a17.83 17.83 0 0 0 2.284-.594c.812-.264 1.31-.418 1.495-.462.437-.103.677-.063.721.121.085.357-.345.774-1.29 1.253-.932.475-1.99.852-3.176 1.132Zm11.27-3.17a3.275 3.275 0 0 0-.452-1.06c-.211-.327-.457-.543-.737-.647-.742.407-1.28 1.184-1.616 2.332-.327 1.134-.385 2.144-.175 3.03.21.886.56 1.387 1.048 1.503.79-.357 1.36-1.087 1.706-2.19.355-1.116.43-2.106.226-2.969Zm-4.504 1.227c.19-.993.54-1.853 1.047-2.58.517-.742 1.115-1.193 1.794-1.354.69-.162 1.336-.005 1.935.473.597.467.995 1.12 1.194 1.96.196.829.197 1.728.001 2.697a6.13 6.13 0 0 1-1.163 2.553c-.568.73-1.25 1.188-2.044 1.375-.587.14-1.14-.016-1.66-.464-.519-.449-.877-1.087-1.073-1.916-.2-.84-.21-1.755-.031-2.744Zm12.326-3.074a3.273 3.273 0 0 0-.452-1.06c-.211-.327-.456-.542-.736-.646-.743.406-1.282 1.183-1.617 2.332-.327 1.134-.385 2.144-.175 3.03.21.886.56 1.386 1.049 1.502.79-.357 1.359-1.086 1.705-2.189.355-1.116.43-2.106.226-2.97Zm-4.503 1.227c.19-.993.539-1.853 1.047-2.58.517-.742 1.115-1.193 1.794-1.353.69-.163 1.335-.006 1.935.473.596.466.994 1.12 1.193 1.96.197.828.197 1.727.002 2.697a6.129 6.129 0 0 1-1.164 2.552c-.568.73-1.25 1.188-2.043 1.376-.587.138-1.14-.017-1.66-.465s-.877-1.087-1.074-1.915c-.199-.84-.21-1.755-.03-2.745Zm12.66-11.354c.184-.044.449.076.795.359.356.268.569.552.64.851.07.3.129 1.185.174 2.656.042 1.46.05 2.983.025 4.569-.032 3.555-.18 5.364-.445 5.427-.161.038-.363-.018-.605-.167-.233-.164-.367-.32-.403-.47-.035-.15-.066-.458-.092-.926-.855 1.417-1.703 2.224-2.543 2.423-.506.12-1.021-.002-1.544-.364-.512-.366-.827-.796-.944-1.29-.17-.714-.18-1.604-.032-2.672a9.11 9.11 0 0 1 1.037-3.088c.534-.977 1.21-1.561 2.026-1.754.818-.193 1.503.162 2.057 1.063.009-2.578-.126-4.58-.404-6.01-.081-.345.004-.547.258-.607Zm.11 8.923c-.148-.622-.381-1.12-.701-1.494-.308-.377-.612-.53-.911-.459-.495.117-.929.541-1.302 1.274a7.572 7.572 0 0 0-.744 2.399c-.114.853-.103 1.567.034 2.142.049.207.163.357.343.448.18.091.373.112.58.063.449-.106.977-.57 1.584-1.394.618-.827.996-1.718 1.134-2.674l.003-.22-.02-.085Zm11.02-1.035c.224.944-.014 1.838-.713 2.684-.701.834-1.605 1.38-2.71 1.642-1.093.258-2.063.19-2.91-.206-.85-.407-1.335-.864-1.455-1.37-.082-.345-.02-.542.188-.591.184-.044.612.147 1.284.572.253.146.573.265.96.356.397.089.791.087 1.183-.006.806-.19 1.47-.565 1.993-1.126.535-.564.745-1.087.63-1.57-.073-.311-.374-.66-.903-1.045a12.252 12.252 0 0 0-1.704-1.037c-.599-.32-1.164-.68-1.696-1.076-.531-.397-.831-.74-.9-1.027a2.795 2.795 0 0 1-.043-.956c.038-.35.109-.615.212-.797.331-.601.92-1.22 1.765-1.857.857-.64 1.608-1.036 2.253-1.188.333-.078.641-.036.923.129.282.164.452.367.51.608.026.115-.073.236-.298.362a25.74 25.74 0 0 1-1.04.537c-.458.218-.86.446-1.204.686-1.204.818-1.75 1.464-1.638 1.935.06.253.901.802 2.523 1.646a8.61 8.61 0 0 1 1.771 1.24c.565.487.905.972 1.02 1.455Zm3.966.868c.052.219.204.298.457.239.438-.104.938-.35 1.503-.738.573-.402.894-.612.963-.628.207-.049.336.036.388.255.08.333-.175.8-.762 1.4-.575.598-1.145.963-1.709 1.096-.552.13-1.048.09-1.487-.122-.442-.224-.701-.497-.777-.82-.077-.321-.104-.746-.084-1.273.018-.54.057-1.247.117-2.124.068-.89.113-1.624.134-2.2-.51.254-.858.403-1.042.446-.184.044-.39-.005-.618-.146-.219-.155-.349-.318-.39-.49-.065-.277.62-.718 2.056-1.325-.02-1.003-.116-1.874-.29-2.61-.082-.345-.008-.545.222-.6.196-.046.467.024.815.21.345.173.554.415.628.726.074.31.105.88.095 1.709.643-.213 1.16-.365 1.55-.457.691-.163 1.072-.095 1.143.204.04.172-.115.361-.468.566-.34.202-1.08.565-2.22 1.089a76.63 76.63 0 0 1-.175 3.34c-.093 1.25-.11 2-.05 2.253Zm7.714-9.038c.518-.122 1.059.03 1.621.456.56.414.89.834.992 1.26.098.414.055.874-.129 1.38.179.14.284.272.314.399.076.322.132.892.168 1.71.047.815.082 1.347.105 1.597.034.247.058.448.07.603.01.144.014.289.012.435.022.298-.047.467-.209.505-.207.049-.422-.089-.644-.413-.214-.338-.4-.792-.56-1.362-.716 1.542-1.512 2.416-2.386 2.622-.53.125-1.107.025-1.73-.302-.616-.34-.981-.753-1.096-1.236-.163-.69-.112-1.602.154-2.734a10.327 10.327 0 0 1 1.322-3.191c.617-.984 1.283-1.56 1.996-1.73Zm1.514 2.85c-.253-1.07-.593-1.555-1.019-1.454-.449.106-.896.552-1.342 1.337a9.576 9.576 0 0 0-1.007 2.516c-.224.904-.28 1.591-.168 2.063a.606.606 0 0 0 .356.426c.189.077.392.09.611.038.541-.128 1.065-.634 1.572-1.52.505-.896.765-1.9.782-3.009-.007-.18.067-.307.22-.38l-.005-.017Z" fill="#2C2C2C"/><path fill-rule="evenodd" clip-rule="evenodd" d="M53.88 32.456a1.49 1.49 0 0 0-1.045.979c-3.105 9.18-11.803 15.793-22.054 15.793a23.212 23.212 0 0 1-16.034-6.393 1.488 1.488 0 0 0-1.377-.378c-1.041.257-1.435 1.519-.662 2.262A25.978 25.978 0 0 0 30.78 52c11.533 0 21.314-7.484 24.739-17.852.335-1.017-.6-1.949-1.64-1.692ZM6.803 22.994c.562-.139.98-.607 1.084-1.177C9.86 10.987 19.357 2.772 30.78 2.772c7.429 0 14.042 3.473 18.302 8.88.357.453.943.671 1.504.533.95-.235 1.38-1.34.78-2.114C46.601 3.944 39.152 0 30.78 0 17.94 0 7.268 9.28 5.13 21.49c-.169.963.725 1.738 1.674 1.504Z" fill="#BBF330"/><path d="M69.94 8.664c-6.154 11.766-8.856 4.005-17.52 8.564.867-13.659 10.043-5.348 17.52-8.564Z" fill="#BBF330" stroke="#BBF330" stroke-width="1.02" stroke-linejoin="round"/></svg>